<svg width="40" height="40" viewBox="0 0 40 40" fill="none" xmlns="http://www.w3.org/2000/svg">
<g clip-path="url(#clip0_16040_1892)">
<path d="M7.90307 5.18359C11.4487 4.29153 14.9958 5.18565 17.6189 7.5791C18.796 6.51133 20.1764 5.73219 21.6628 5.28613C21.395 6.21321 21.2527 7.19191 21.2527 8.2041C21.2527 14.0189 25.9828 18.7498 31.7976 18.75C32.8428 18.75 33.8526 18.597 34.8064 18.3135C34.3182 19.8164 33.4883 21.0134 32.7205 22.1211C31.5824 23.7645 30.4696 25.3157 30.4695 27.7705V31.7451C30.4692 35.7305 27.2107 39.998 22.3044 39.998H21.3445L19.2722 29.6367C19.1152 28.851 18.4192 28.2804 17.6179 28.2803C16.8172 28.2803 16.1206 28.8509 15.9636 29.6367L13.8913 39.998H12.9304C8.02502 39.9979 4.77048 35.7304 4.77026 31.7451V27.7705C4.77012 25.3055 3.65203 23.7567 2.51244 22.1172C1.18291 20.2034 -0.325206 18.0338 0.0622474 14.4521C0.495068 10.4472 3.99732 6.1655 7.90307 5.18359ZM31.7976 0.00195312C36.3203 0.00195312 39.9995 3.68143 39.9997 8.2041C39.9997 12.727 36.3205 16.4062 31.7976 16.4062C27.2748 16.4061 23.5955 12.7269 23.5955 8.2041C23.5957 3.68151 27.275 0.00209659 31.7976 0.00195312ZM30.6257 4.68945V7.0332H28.283V9.37598H30.6257V11.7197H32.9695V9.37598H35.3132V7.0332H32.9695V4.68945H30.6257Z" fill="#E3544C"/>
</g>
<defs>
<clipPath id="clip0_16040_1892">
<rect width="40" height="40" fill="white"/>
</clipPath>
</defs>
</svg>
