<svg width="40" height="40" viewBox="0 0 40 40" fill="none" xmlns="http://www.w3.org/2000/svg">
<g clip-path="url(#clip0_16040_1880)">
<path d="M33.2964 0.0136541L29.5366 3.77242C29.3459 3.96326 29.2793 4.24635 29.3648 4.50191L30.7896 8.77728C30.8607 8.98987 31.0279 9.157 31.2407 9.22748L35.5161 10.6523C35.7721 10.7377 36.0551 10.6711 36.2456 10.4804L40.0044 6.72163C40.013 6.85747 40.0171 6.99228 40.0171 7.12592C40.0287 9.32242 39.0206 11.4007 37.2886 12.7519C35.5569 14.1029 33.2971 14.5754 31.1694 14.0302C30.9268 13.9698 30.6697 14.0408 30.4927 14.2177L14.3307 30.3797C14.1535 30.5565 14.0829 30.8138 14.1432 31.0565C14.9007 34.031 13.6816 37.1578 11.1109 38.8348C8.54037 40.5118 5.18713 40.3669 2.77016 38.4754C0.353248 36.5838 -0.592227 33.3638 0.417637 30.4657C1.42809 27.5673 4.1701 25.633 7.23889 25.6532C7.82004 25.6555 8.39895 25.7304 8.96154 25.8749C9.20443 25.9342 9.46109 25.863 9.6383 25.6874L25.7994 9.5263C25.9764 9.34926 26.0476 9.09263 25.9869 8.84955C25.4246 6.65274 25.9466 4.31886 27.3921 2.57126C28.8379 0.82401 31.0329 -0.127165 33.2964 0.0136541ZM39.7387 34.0633C40.3356 35.6499 39.9485 37.4392 38.7495 38.6385C37.5505 39.8374 35.7614 40.2243 34.1743 39.6277L39.7387 34.0633ZM27.6118 21.3827C26.8711 22.2664 26.9287 23.5689 27.7447 24.3837C28.5606 25.1984 29.8639 25.2554 30.7466 24.5135L38.7495 32.5194C38.8367 32.6065 38.9181 32.6986 38.9966 32.7918L32.9038 38.8846C32.8108 38.8059 32.7186 38.7247 32.6314 38.6375L24.6353 30.6366C25.376 29.7528 25.3183 28.4495 24.5025 27.6346C23.6871 26.82 22.3833 26.7639 21.5005 27.5057L20.3599 26.3661L26.4781 20.2479L27.6118 21.3827ZM3.79457 32.7791L5.50453 35.6287H8.97326L10.6832 32.7791L8.97326 29.9285H5.50453L3.79457 32.7791ZM27.399 28.2948L34.5249 35.4197L35.5327 34.4129L28.4068 27.287L27.399 28.2948ZM11.7232 27.287L12.7311 28.2948L28.4068 12.6181L27.399 11.6103L11.7232 27.287ZM6.61878 2.60642L7.26038 5.16109C7.29191 5.2864 7.35659 5.4009 7.44788 5.49214L17.6324 15.6776L15.7896 17.5204L5.60511 7.33491C5.51397 7.24389 5.39901 7.17974 5.27406 7.14839L2.71938 6.50972L0.288731 2.25778L2.36978 0.176739L6.61878 2.60642Z" fill="#E3544C"/>
</g>
<defs>
<clipPath id="clip0_16040_1880">
<rect width="40" height="40" fill="white"/>
</clipPath>
</defs>
</svg>
