<svg width="212" height="25" viewBox="0 0 212 25" fill="none" xmlns="http://www.w3.org/2000/svg">
<path d="M9.53674e-07 20.8319H3.872C4.768 20.8319 5.49333 20.5546 6.048 19.9999C6.60267 19.4239 6.88 18.6239 6.88 17.5999V5.66394H9.53674e-07V1.72794H11.072V17.5999C11.072 18.7093 10.8907 19.7119 10.528 20.6079C10.1867 21.4826 9.696 22.2293 9.056 22.8479C8.416 23.4666 7.65867 23.9466 6.784 24.2879C5.90933 24.6079 4.93867 24.7679 3.872 24.7679H9.53674e-07V20.8319ZM22.6163 24.7679C21.2936 24.7679 20.0776 24.5546 18.9683 24.1279C17.8803 23.6799 16.9416 23.0613 16.1523 22.2719C15.3629 21.4826 14.7443 20.5439 14.2963 19.4559C13.8696 18.3466 13.6563 17.1306 13.6563 15.8079C13.6563 14.4639 13.8696 13.2373 14.2963 12.1279C14.7443 10.9973 15.3629 10.0373 16.1523 9.24794C16.9416 8.43728 17.8803 7.81861 18.9683 7.39194C20.0776 6.94394 21.2936 6.71994 22.6163 6.71994C23.9389 6.71994 25.1443 6.94394 26.2323 7.39194C27.3416 7.81861 28.2909 8.43728 29.0803 9.24794C29.8696 10.0373 30.4776 10.9973 30.9043 12.1279C31.3523 13.2373 31.5763 14.4639 31.5763 15.8079V24.7679H22.6163ZM27.3843 20.8319V15.8079C27.3843 15.0613 27.2669 14.3786 27.0323 13.7599C26.7976 13.1199 26.4669 12.5759 26.0403 12.1279C25.6136 11.6586 25.1123 11.2959 24.5363 11.0399C23.9603 10.7839 23.3203 10.6559 22.6163 10.6559C21.9123 10.6559 21.2723 10.7839 20.6963 11.0399C20.1203 11.2959 19.6189 11.6586 19.1923 12.1279C18.7656 12.5759 18.4349 13.1199 18.2003 13.7599C17.9656 14.3786 17.8483 15.0613 17.8483 15.8079C17.8483 16.5546 17.9656 17.2373 18.2003 17.8559C18.4349 18.4746 18.7549 19.0079 19.1603 19.4559C19.5869 19.8826 20.0883 20.2239 20.6643 20.4799C21.2616 20.7146 21.9123 20.8319 22.6163 20.8319H27.3843ZM34.8915 -5.72205e-05H39.0835V6.87994H42.9875C45.3128 6.87994 47.1262 7.56261 48.4275 8.92794C49.7288 10.2933 50.3795 12.1919 50.3795 14.6239V24.7679H46.1875V14.4639C46.1875 13.3119 45.9102 12.4159 45.3555 11.7759C44.8008 11.1359 44.0222 10.8159 43.0195 10.8159H39.0835V24.7679H34.8915V-5.72205e-05ZM53.6728 6.87994H57.8648V24.7679H53.6728V6.87994ZM55.7848 5.05594C55.1021 5.05594 54.5368 4.83194 54.0888 4.38394C53.6621 3.93594 53.4488 3.39194 53.4488 2.75194C53.4488 2.11194 53.6621 1.56794 54.0888 1.11994C54.5368 0.671943 55.1021 0.447943 55.7848 0.447943C56.4461 0.447943 56.9901 0.671943 57.4168 1.11994C57.8434 1.56794 58.0568 2.11194 58.0568 2.75194C58.0568 3.39194 57.8434 3.93594 57.4168 4.38394C56.9901 4.83194 56.4461 5.05594 55.7848 5.05594ZM69.4288 20.9919C70.1114 20.9919 70.7408 20.8639 71.3168 20.6079C71.9141 20.3519 72.4261 19.9999 72.8528 19.5519C73.2794 19.1039 73.6101 18.5599 73.8448 17.9199C74.0794 17.2799 74.1968 16.5759 74.1968 15.8079V10.6559H69.4288C68.7461 10.6559 68.1061 10.7839 67.5088 11.0399C66.9328 11.2959 66.4314 11.6479 66.0048 12.0959C65.5781 12.5439 65.2474 13.0879 65.0128 13.7279C64.7781 14.3466 64.6608 15.0399 64.6608 15.8079C64.6608 16.5759 64.7781 17.2799 65.0128 17.9199C65.2474 18.5599 65.5781 19.1039 66.0048 19.5519C66.4314 19.9999 66.9328 20.3519 67.5088 20.6079C68.1061 20.8639 68.7461 20.9919 69.4288 20.9919ZM69.4288 24.9279C68.1061 24.9279 66.8901 24.7039 65.7808 24.2559C64.6928 23.8079 63.7541 23.1893 62.9648 22.3999C62.1754 21.5893 61.5568 20.6293 61.1088 19.5199C60.6821 18.4106 60.4688 17.1839 60.4688 15.8399C60.4688 14.4959 60.6821 13.2693 61.1088 12.1599C61.5568 11.0293 62.1754 10.0693 62.9648 9.27994C63.7541 8.46928 64.6928 7.83994 65.7808 7.39194C66.8901 6.94394 68.1061 6.71994 69.4288 6.71994H74.1968V-5.72205e-05H78.3888V15.8079C78.3888 17.1519 78.1648 18.3893 77.7168 19.5199C77.2901 20.6293 76.6821 21.5893 75.8928 22.3999C75.1034 23.1893 74.1541 23.8079 73.0448 24.2559C71.9568 24.7039 70.7514 24.9279 69.4288 24.9279ZM93.454 1.72794H97.646V11.2639H106.702V1.72794H110.894V24.7679H106.702V15.1999H97.646V24.7679H93.454V1.72794ZM122.491 24.9279C121.169 24.9279 119.953 24.7039 118.843 24.2559C117.755 23.8079 116.817 23.1893 116.027 22.3999C115.238 21.5893 114.619 20.6293 114.171 19.5199C113.745 18.4106 113.531 17.1839 113.531 15.8399C113.531 14.4959 113.745 13.2693 114.171 12.1599C114.619 11.0293 115.238 10.0693 116.027 9.27994C116.817 8.46928 117.755 7.83994 118.843 7.39194C119.953 6.94394 121.169 6.71994 122.491 6.71994C123.814 6.71994 125.019 6.94394 126.107 7.39194C127.217 7.83994 128.166 8.46928 128.955 9.27994C129.745 10.0693 130.353 11.0293 130.779 12.1599C131.227 13.2693 131.451 14.4959 131.451 15.8399C131.451 17.1839 131.227 18.4106 130.779 19.5199C130.353 20.6293 129.745 21.5893 128.955 22.3999C128.166 23.1893 127.217 23.8079 126.107 24.2559C125.019 24.7039 123.814 24.9279 122.491 24.9279ZM122.491 20.9919C123.174 20.9919 123.803 20.8639 124.379 20.6079C124.977 20.3519 125.489 19.9999 125.915 19.5519C126.342 19.1039 126.673 18.5706 126.907 17.9519C127.142 17.3119 127.259 16.6079 127.259 15.8399C127.259 15.0719 127.142 14.3679 126.907 13.7279C126.673 13.0879 126.342 12.5439 125.915 12.0959C125.489 11.6479 124.977 11.2959 124.379 11.0399C123.803 10.7839 123.174 10.6559 122.491 10.6559C121.809 10.6559 121.169 10.7839 120.571 11.0399C119.995 11.2959 119.494 11.6479 119.067 12.0959C118.641 12.5439 118.31 13.0879 118.075 13.7279C117.841 14.3679 117.723 15.0719 117.723 15.8399C117.723 16.6079 117.841 17.3119 118.075 17.9519C118.31 18.5706 118.641 19.1039 119.067 19.5519C119.494 19.9999 119.995 20.3519 120.571 20.6079C121.169 20.8639 121.809 20.9919 122.491 20.9919ZM133.982 20.8319H142.59C143.145 20.8319 143.54 20.6826 143.774 20.3839C144.009 20.0639 144.126 19.7013 144.126 19.2959C144.126 18.8906 144.009 18.5386 143.774 18.2399C143.54 17.9199 143.145 17.7599 142.59 17.7599H139.39C137.534 17.7599 136.116 17.2693 135.134 16.2879C134.153 15.3066 133.662 13.9839 133.662 12.3199C133.662 10.6559 134.153 9.33328 135.134 8.35194C136.116 7.37061 137.534 6.87994 139.39 6.87994H147.998V10.8159H139.39C138.836 10.8159 138.441 10.9653 138.206 11.2639C137.972 11.5626 137.854 11.9146 137.854 12.3199C137.854 12.7253 137.972 13.0773 138.206 13.3759C138.441 13.6746 138.836 13.8239 139.39 13.8239H142.59C144.468 13.8239 145.886 14.3253 146.846 15.3279C147.828 16.3093 148.318 17.6319 148.318 19.2959C148.318 20.9599 147.828 22.2933 146.846 23.2959C145.886 24.2773 144.468 24.7679 142.59 24.7679H133.982V20.8319ZM151.014 20.8319H159.622C160.176 20.8319 160.571 20.6826 160.806 20.3839C161.04 20.0639 161.158 19.7013 161.158 19.2959C161.158 18.8906 161.04 18.5386 160.806 18.2399C160.571 17.9199 160.176 17.7599 159.622 17.7599H156.422C154.566 17.7599 153.147 17.2693 152.166 16.2879C151.184 15.3066 150.694 13.9839 150.694 12.3199C150.694 10.6559 151.184 9.33328 152.166 8.35194C153.147 7.37061 154.566 6.87994 156.422 6.87994H165.03V10.8159H156.422C155.867 10.8159 155.472 10.9653 155.238 11.2639C155.003 11.5626 154.886 11.9146 154.886 12.3199C154.886 12.7253 155.003 13.0773 155.238 13.3759C155.472 13.6746 155.867 13.8239 156.422 13.8239H159.622C161.499 13.8239 162.918 14.3253 163.878 15.3279C164.859 16.3093 165.35 17.6319 165.35 19.2959C165.35 20.9599 164.859 22.2933 163.878 23.2959C162.918 24.2773 161.499 24.7679 159.622 24.7679H151.014V20.8319ZM176.429 24.7679C175.106 24.7679 173.89 24.5546 172.781 24.1279C171.693 23.6799 170.754 23.0613 169.965 22.2719C169.175 21.4826 168.557 20.5439 168.109 19.4559C167.682 18.3466 167.469 17.1306 167.469 15.8079C167.469 14.4639 167.682 13.2373 168.109 12.1279C168.557 10.9973 169.175 10.0373 169.965 9.24794C170.754 8.43728 171.693 7.81861 172.781 7.39194C173.89 6.94394 175.106 6.71994 176.429 6.71994C177.751 6.71994 178.957 6.94394 180.045 7.39194C181.154 7.81861 182.103 8.43728 182.893 9.24794C183.682 10.0373 184.29 10.9973 184.717 12.1279C185.165 13.2373 185.389 14.4639 185.389 15.8079V24.7679H176.429ZM181.197 20.8319V15.8079C181.197 15.0613 181.079 14.3786 180.845 13.7599C180.61 13.1199 180.279 12.5759 179.853 12.1279C179.426 11.6586 178.925 11.2959 178.349 11.0399C177.773 10.7839 177.133 10.6559 176.429 10.6559C175.725 10.6559 175.085 10.7839 174.509 11.0399C173.933 11.2959 173.431 11.6586 173.005 12.1279C172.578 12.5759 172.247 13.1199 172.013 13.7599C171.778 14.3786 171.661 15.0613 171.661 15.8079C171.661 16.5546 171.778 17.2373 172.013 17.8559C172.247 18.4746 172.567 19.0079 172.973 19.4559C173.399 19.8826 173.901 20.2239 174.477 20.4799C175.074 20.7146 175.725 20.8319 176.429 20.8319H181.197ZM188.704 6.87994H192.896V24.7679H188.704V6.87994ZM190.816 5.05594C190.133 5.05594 189.568 4.83194 189.12 4.38394C188.693 3.93594 188.48 3.39194 188.48 2.75194C188.48 2.11194 188.693 1.56794 189.12 1.11994C189.568 0.671943 190.133 0.447943 190.816 0.447943C191.477 0.447943 192.021 0.671943 192.448 1.11994C192.875 1.56794 193.088 2.11194 193.088 2.75194C193.088 3.39194 192.875 3.93594 192.448 4.38394C192.021 4.83194 191.477 5.05594 190.816 5.05594ZM204.3 6.87994C206.625 6.87994 208.439 7.56261 209.74 8.92794C211.041 10.2933 211.692 12.1919 211.692 14.6239V24.7679H207.5V14.4639C207.5 13.3119 207.223 12.4159 206.668 11.7759C206.113 11.1359 205.335 10.8159 204.332 10.8159H200.396V24.7679H196.204V6.87994H204.3Z" fill="white"/>
</svg>
