<svg width="40" height="40" viewBox="0 0 40 40" fill="none" xmlns="http://www.w3.org/2000/svg">
<path d="M14.13 35.7316C11.1601 34.6139 8.56659 32.6794 6.64863 30.1513C4.73067 27.6232 3.56637 24.6045 3.28998 21.4433H10.49C10.4625 26.4389 11.7157 31.3581 14.13 35.7316ZM26.6383 21.4433C26.335 30.5516 23.015 36.79 20.0166 36.79C17.0166 36.79 13.6983 30.5516 13.3933 21.4433H26.6383ZM36.71 21.4433C36.44 24.6088 35.2762 27.6325 33.3541 30.1621C31.432 32.6918 28.8307 34.6233 25.8533 35.7316C28.2811 31.3627 29.5406 26.4413 29.51 21.4433H36.71ZM36.71 18.5566H29.51C29.5433 13.5566 28.285 8.63663 25.8533 4.26829C28.8318 5.37493 31.4342 7.30594 33.3565 9.83592C35.2789 12.3659 36.4419 15.3905 36.71 18.5566ZM26.6383 18.5566H13.3933C13.6983 9.43163 17.0166 3.20996 20.0166 3.20996C23.015 3.20996 26.3183 9.43163 26.6383 18.5566ZM14.13 4.34996C11.7132 8.72189 10.4598 13.6413 10.49 18.6366H3.28998C3.56085 15.4739 4.72308 12.4528 6.64179 9.92406C8.5605 7.39528 11.157 5.46247 14.13 4.34996Z" fill="#E3544C"/>
</svg>
