<svg width="40" height="40" viewBox="0 0 40 40" fill="none" xmlns="http://www.w3.org/2000/svg">
<path d="M20 2.5H10.3125C9.23506 2.5 8.20175 2.92801 7.43988 3.68988C6.67801 4.45175 6.25 5.48506 6.25 6.5625V33.4375C6.25 34.5149 6.67801 35.5483 7.43988 36.3101C8.20175 37.072 9.23506 37.5 10.3125 37.5H29.6875C30.7649 37.5 31.7983 37.072 32.5601 36.3101C33.322 35.5483 33.75 34.5149 33.75 33.4375V16.25H24.0625C22.9851 16.25 21.9517 15.822 21.1899 15.0601C20.428 14.2983 20 13.2649 20 12.1875V2.5ZM33.5788 13.75C33.3858 13.1052 33.0358 12.5185 32.56 12.0425L24.2075 3.69C23.7316 3.21377 23.1449 2.86327 22.5 2.67V12.1875C22.5 13.05 23.2 13.75 24.0625 13.75H33.5788Z" fill="#E3544C"/>
</svg>
