<svg width="40" height="40" viewBox="0 0 40 40" fill="none" xmlns="http://www.w3.org/2000/svg">
<path d="M26.25 17.5C26.25 19.2306 25.7369 20.9223 24.7754 22.3612C23.8139 23.8002 22.4474 24.9217 20.8485 25.5839C19.2497 26.2462 17.4903 26.4195 15.793 26.0819C14.0957 25.7442 12.5366 24.9109 11.3129 23.6872C10.0892 22.4635 9.2558 20.9044 8.91818 19.207C8.58056 17.5097 8.75384 15.7504 9.4161 14.1515C10.0784 12.5527 11.1999 11.1861 12.6388 10.2246C14.0777 9.26316 15.7695 8.74999 17.5 8.74999C19.8207 8.74999 22.0463 9.67186 23.6872 11.3128C25.3282 12.9537 26.25 15.1793 26.25 17.5ZM35.8844 35.8844C35.7683 36.0006 35.6305 36.0928 35.4787 36.1557C35.327 36.2186 35.1643 36.251 35 36.251C34.8358 36.251 34.6731 36.2186 34.5214 36.1557C34.3696 36.0928 34.2318 36.0006 34.1157 35.8844L26.2938 28.0609C23.5737 30.3239 20.0858 31.4511 16.5558 31.2081C13.0257 30.9652 9.72523 29.3707 7.34081 26.7563C4.95639 24.142 3.67161 20.709 3.75371 17.1716C3.8358 13.6341 5.27845 10.2645 7.78158 7.76359C10.2847 5.26267 13.6556 3.823 17.1931 3.74403C20.7307 3.66506 24.1624 4.95288 26.7747 7.33961C29.3869 9.72633 30.9785 13.0282 31.2184 16.5585C31.4582 20.0887 30.3279 23.5756 28.0625 26.2937L35.8844 34.1156C36.0006 34.2317 36.0928 34.3696 36.1557 34.5213C36.2187 34.6731 36.251 34.8357 36.251 35C36.251 35.1643 36.2187 35.3269 36.1557 35.4787C36.0928 35.6304 36.0006 35.7683 35.8844 35.8844ZM17.5 28.75C19.7251 28.75 21.9002 28.0902 23.7502 26.854C25.6003 25.6179 27.0422 23.8608 27.8937 21.8052C28.7452 19.7495 28.968 17.4875 28.5339 15.3052C28.0998 13.1229 27.0283 11.1184 25.455 9.54504C23.8817 7.97169 21.8771 6.90024 19.6948 6.46615C17.5125 6.03207 15.2505 6.25486 13.1949 7.10634C11.1392 7.95783 9.38218 9.39977 8.14602 11.2498C6.90985 13.0999 6.25005 15.2749 6.25005 17.5C6.25336 20.4827 7.43968 23.3422 9.54875 25.4513C11.6578 27.5604 14.5174 28.7467 17.5 28.75Z" fill="#E3544C"/>
</svg>
