<svg width="40" height="40" viewBox="0 0 40 40" fill="none" xmlns="http://www.w3.org/2000/svg">
<path d="M28.1548 28L26.6132 30.8988L34.1612 29.6648C32.638 28.9008 30.576 28.3548 28.1548 28ZM8.7108 28.632C5.2148 29.554 3 31.0648 3 33.3088C3.00144 33.7919 3.10704 34.269 3.3096 34.7076L15.4236 32.7276L8.7108 28.632ZM36.716 32L19.856 34.748L24.3024 39.8064C31.604 39.1524 37 36.82 37 33.3088C37 32.8408 36.8992 32.4056 36.716 32ZM17.0072 35.2224L5.6152 37.0844C8.6264 38.9496 13.9412 40 20 40C20.3672 40 20.726 39.9896 21.0876 39.982L17.0072 35.2224Z" fill="#E3544C"/>
<path d="M20.0008 0C13.4808 0 8.13123 5.3332 8.13123 11.8384C8.13123 14.3392 8.92603 16.6688 10.268 18.5844L17.9616 31.8844L17.9944 31.9272C18.298 32.3236 18.5944 32.6364 18.9424 32.8664C19.2904 33.0968 19.7224 33.2344 20.1464 33.192C20.9936 33.1072 21.5124 32.5088 22.0048 31.8416L22.0312 31.8072L30.5248 17.3508L30.5296 17.3416C30.7288 16.9816 30.876 16.6152 31.0008 16.2584C31.5732 14.855 31.868 13.354 31.8688 11.8384C31.8688 5.3332 26.5208 0 20.0008 0ZM20.0008 6.818C22.8292 6.818 25.0368 9.0216 25.0368 11.838C25.0368 14.6552 22.8292 16.858 20.0008 16.858C17.172 16.858 14.9632 14.6548 14.9632 11.838C14.9632 9.022 17.1724 6.818 20.0008 6.818Z" fill="#E3544C"/>
</svg>
