<svg width="40" height="40" viewBox="0 0 40 40" fill="none" xmlns="http://www.w3.org/2000/svg">
<g clip-path="url(#clip0_16040_1895)">
<path d="M20 0C31.0429 0 40 8.95714 40 20C40 31.0429 31.0429 40 20 40C8.95714 40 0 31.0429 0 20C2.57868e-07 8.95714 8.95714 2.57851e-07 20 0ZM19.2861 22.7354V30.6719C17.2505 30.4147 15.5426 29.0788 14.7568 27.2646L8.93555 33.0859C11.9213 35.6145 15.8 37.1426 20 37.1426C24.2 37.1426 28.0497 35.6282 31.0283 33.1211C30.907 33.0568 30.8067 32.9566 30.7354 32.8281L28.7783 29.1924L25.4219 26.793C24.7362 28.8501 22.921 30.3933 20.7139 30.6719V21.3076L19.2861 22.7354ZM30.6143 11.4287L30.043 15.4141C30.0144 15.5926 29.9212 15.7568 29.7783 15.8711L25.7217 19.0859V21.0068H29.8076C30.0073 21.007 30.1925 21.0859 30.3281 21.2285L33.3574 24.4287C33.6286 24.7144 33.6138 25.1642 33.3281 25.4355C33.1854 25.564 33.0144 25.6289 32.8359 25.6289C32.6431 25.6289 32.4573 25.5571 32.3145 25.4072L29.5 22.4287H25.7217V25C25.7217 25.0786 25.707 25.1646 25.707 25.2432L29.7432 28.1289C29.8357 28.1931 29.9071 28.2785 29.957 28.3711L31.9932 32.1572C32.0073 32.1787 32.0146 32.228 32.0146 32.2285L32.0283 32.2354C35.1926 29.1211 37.1572 24.7925 37.1572 20.0068C37.1572 15.7927 35.6281 11.928 33.0996 8.94238L30.6143 11.4287ZM20 2.85742C10.5357 2.85742 2.85742 10.5357 2.85742 20C2.85742 24.2143 4.3855 28.0787 6.91406 31.0645L31.0645 6.91406C28.0787 4.3855 24.2143 2.85742 20 2.85742ZM9.8584 10.6328C10.2607 10.5761 10.6261 10.8455 10.6846 11.2354L11.2412 15.0059L14.2549 17.3242V16.3457C14.255 15.6511 14.8399 15.084 15.5566 15.084H19.375V16.7432L14.9199 21.0596L14.9277 21.0527L14.2617 21.6982L13.4863 22.4492H10.3926L7.51074 25.4053C7.37176 25.5541 7.16627 25.625 6.9834 25.625C6.8006 25.6249 6.61744 25.5611 6.47852 25.4336C6.18616 25.1642 6.1714 24.7102 6.44922 24.4268L9.55078 21.251C9.68245 21.1092 9.88062 21.0312 10.0781 21.0312H14.2617V19.125L10.1074 15.9346C9.96118 15.8212 9.86523 15.6586 9.83594 15.4814L9.23633 11.4336C9.17781 11.0437 9.45609 10.6895 9.8584 10.6328ZM25.7139 16.3076H25.7217V17.2568L28.6641 14.9219L28.9219 13.0996L25.7139 16.3076ZM20.9219 11.875C21.759 11.8751 22.5228 12.2592 23.125 12.8965L22.457 13.75H16.25C16.889 12.6157 17.9172 11.8751 19.085 11.875H20.9219ZM23.6387 6.875C24.0437 6.87512 24.375 7.23498 24.375 7.6748C24.375 8.11463 24.0437 8.47449 23.6387 8.47461C22.7696 8.47461 22.0623 9.2187 22.0107 10.1465C22.3127 10.4584 22.5558 10.8262 22.7178 11.25C22.158 11.0101 21.5465 10.874 20.9131 10.874H19.0791C18.4384 10.8741 17.8341 11.0101 17.2744 11.25C17.4364 10.8263 17.6796 10.4504 17.9814 10.1465C17.9299 9.21881 17.2235 8.4748 16.3545 8.47461H16.3613C15.9563 8.47449 15.625 8.11463 15.625 7.6748C15.625 7.23498 15.9563 6.87512 16.3613 6.875C17.7902 6.875 18.9838 7.93066 19.3447 9.3623C19.5582 9.31434 19.7718 9.27441 20 9.27441C20.2282 9.27441 20.4418 9.30636 20.6553 9.3623C21.0162 7.93066 22.2098 6.875 23.6387 6.875Z" fill="#E3544C"/>
</g>
<defs>
<clipPath id="clip0_16040_1895">
<rect width="40" height="40" fill="white"/>
</clipPath>
</defs>
</svg>
