<svg width="40" height="40" viewBox="0 0 40 40" fill="none" xmlns="http://www.w3.org/2000/svg">
<g clip-path="url(#clip0_16144_1210)">
<path fill-rule="evenodd" clip-rule="evenodd" d="M20 0C31.0457 0 40 8.9543 40 20C40 31.0457 31.0457 40 20 40C8.9543 40 0 31.0457 0 20C0 8.9543 8.9543 0 20 0ZM31.7422 29.2528C32.028 28.9656 32.1884 28.5768 32.1884 28.1716C32.1884 27.7664 32.028 27.3777 31.7422 27.0905L27.8273 23.1764C27.5399 22.8905 27.151 22.73 26.7456 22.73C26.3402 22.73 25.9514 22.8905 25.664 23.1764L24.6002 24.2407C24.2469 24.597 23.788 24.8296 23.2918 24.9039C22.7957 24.9782 22.2888 24.8902 21.8466 24.6531C19.0782 23.1868 16.8139 20.9228 15.3472 18.1545C15.11 17.7122 15.022 17.2052 15.0961 16.7089C15.1703 16.2126 15.4028 15.7535 15.7589 15.4L16.8248 14.3359C17.1105 14.0486 17.271 13.6598 17.271 13.2545C17.271 12.8492 17.1105 12.4604 16.8248 12.173L12.9098 8.25937C12.6225 7.97342 12.2336 7.81289 11.8282 7.81289C11.4228 7.81289 11.0339 7.97342 10.7465 8.25937C10.5847 8.4207 10.38 8.61562 10.1611 8.82187C9.61367 9.3393 8.9307 9.98328 8.65461 10.3881C7.20047 12.5162 7.89781 15.3632 8.73555 17.3771C9.84219 20.0316 11.8817 22.924 14.4805 25.521C17.077 28.1177 19.9685 30.1575 22.6245 31.2641C24.6379 32.103 27.4838 32.7987 29.6118 31.3448C30.0164 31.0685 30.6613 30.3872 31.1777 29.8391C31.3848 29.6205 31.5799 29.4141 31.7422 29.2528Z" fill="#E3544C"/>
</g>
<defs>
<clipPath id="clip0_16144_1210">
<rect width="40" height="40" fill="white"/>
</clipPath>
</defs>
</svg>
