<svg width="40" height="40" viewBox="0 0 40 40" fill="none" xmlns="http://www.w3.org/2000/svg">
<g clip-path="url(#clip0_16040_1883)">
<path d="M38.8281 35.3125C39.4759 35.3125 40 35.8366 40 36.4844V38.8281C40 39.4759 39.4759 40 38.8281 40H24.6875C24.0398 40 23.5156 39.4759 23.5156 38.8281V36.4844C23.5156 35.8366 24.0398 35.3125 24.6875 35.3125H38.8281ZM24.6875 14.1406C31.7954 14.1406 37.6562 19.9234 37.6562 27.0312V32.9688H25.8594V29.375C25.8594 28.34 25.4015 27.4174 24.6875 26.7734V14.1406ZM21.1719 11.7969C21.8196 11.7969 22.3438 12.321 22.3438 12.9688V27.0312C22.3438 27.679 21.8196 28.2031 21.1719 28.2031H18.8281C18.1804 28.2031 17.6562 27.679 17.6562 27.0312V12.9688C17.6562 12.321 18.1804 11.7969 18.8281 11.7969H21.1719ZM14.1406 10.625C14.1406 11.66 14.5985 12.5826 15.3125 13.2266V25.8594C8.20461 25.8594 2.34375 20.0766 2.34375 12.9688V7.03125H14.1406V10.625ZM15.3125 0C15.9602 0 16.4844 0.524141 16.4844 1.17188V3.51562C16.4844 4.16336 15.9602 4.6875 15.3125 4.6875H1.17188C0.524141 4.6875 0 4.16336 0 3.51562V1.17188C0 0.524141 0.524141 0 1.17188 0H15.3125Z" fill="#E3544C"/>
</g>
<defs>
<clipPath id="clip0_16040_1883">
<rect width="40" height="40" fill="white"/>
</clipPath>
</defs>
</svg>
