<svg width="40" height="40" viewBox="0 0 40 40" fill="none" xmlns="http://www.w3.org/2000/svg">
<g clip-path="url(#clip0_16040_1889)">
<path fill-rule="evenodd" clip-rule="evenodd" d="M20.6346 0.625H25.2166C25.5241 0.625 25.7749 0.872085 25.7749 1.17508V3.4423C27.6616 3.81288 29.4161 4.54429 30.9615 5.56043L32.5895 3.95632C32.8069 3.74212 33.1617 3.74212 33.3791 3.95632L36.619 7.14873C36.8364 7.36302 36.8364 7.7124 36.619 7.92668L34.991 9.53071C36.0224 11.0532 36.7644 12.7821 37.1407 14.641H39.4417C39.7492 14.641 40 14.8881 40 15.1911V19.7058C40 20.0088 39.7492 20.2558 39.4417 20.2558H37.1407C36.7645 22.1148 36.0223 23.8435 34.991 25.3662L36.619 26.9703C36.8364 27.1845 36.8364 27.5339 36.619 27.7482L33.379 30.9405C33.259 31.0587 33.0971 31.1117 32.9396 31.0993L28.2268 26.882C33.4911 24.0039 35.4218 17.4654 32.5229 12.2656L34.9422 8.50345L32.0065 5.61094L28.1747 7.98609C23.8529 5.65359 18.4939 6.47284 15.0789 9.93466C14.1409 8.06519 12.537 6.60071 10.5808 5.81998L12.4722 3.95632C12.6896 3.74212 13.0444 3.74212 13.2618 3.95632L14.8897 5.56035C16.4351 4.54413 18.1898 3.81312 20.0764 3.4423V1.17508C20.0764 0.872085 20.3272 0.625 20.6347 0.625H20.6346ZM15.5681 19.9567C15.3424 19.7343 14.9732 19.7343 14.7475 19.9567L13.474 21.2114C13.2483 21.4338 13.2483 21.7976 13.474 22.02L18.2756 26.751C18.5013 26.9734 18.8706 26.9734 19.0963 26.751L20.3697 25.4963C20.5954 25.2739 20.5954 24.91 20.3697 24.6877L15.5681 19.9567ZM17.0111 27.3103L12.9062 23.2657L2.68591 31.6436C0.945176 33.0705 1.08471 35.8027 2.68591 37.3803C4.28703 38.9578 7.06003 39.0954 8.50816 37.3803L17.011 27.3102L17.0111 27.3103ZM27.8477 9.69678L27.0757 10.9729L17.6791 20.2314L20.1011 22.6178L29.5252 13.3323L30.7796 12.5917L33.2928 8.68342L31.8214 7.23371L27.8477 9.69678ZM4.87756 6.89124L9.10837 11.0598L8.62689 14.9744L4.65396 15.4487L0.423157 11.2801C-0.494648 13.8269 0.0804915 16.7793 2.14914 18.8176C4.21222 20.8504 7.19819 21.4196 9.7783 20.5256L11.6915 22.6011L12.1221 22.2482C11.8815 21.5942 12.0267 20.8322 12.558 20.3088L13.8314 19.0541C14.5628 18.3335 15.7529 18.3335 16.4843 19.0541L16.7631 19.3288L17.2848 18.8147L14.261 16.1088C15.1683 13.5667 14.5906 10.6247 12.5274 8.59193C10.4588 6.55369 7.46235 5.98693 4.87756 6.89124ZM21.0173 23.5204L21.2858 23.785C22.0171 24.5056 22.0171 25.6783 21.2858 26.3988L20.0124 27.6535C19.4811 28.177 18.7078 28.3201 18.044 28.083L17.4228 28.8188L25.9797 38.102C27.5799 39.838 30.4167 39.7602 32.0998 38.102C33.7828 36.4437 33.8616 33.6486 32.0998 32.0719L21.7436 22.8047L21.0173 23.5204ZM10.025 23.9671L10.6946 23.4183L9.3647 21.9755C9.30577 21.9896 9.24669 22.0027 9.1876 22.0155C9.41846 22.69 9.69906 23.3419 10.0251 23.9671H10.025Z" fill="#E3544C"/>
</g>
<defs>
<clipPath id="clip0_16040_1889">
<rect width="40" height="40" fill="white"/>
</clipPath>
</defs>
</svg>
