<svg width="40" height="40" viewBox="0 0 40 40" fill="none" xmlns="http://www.w3.org/2000/svg">
<path fill-rule="evenodd" clip-rule="evenodd" d="M20 26.6332L2.85217 19.7744L7.77062 17.8072L19.5521 22.5195C19.8395 22.6344 20.1605 22.6344 20.4479 22.5195L32.2294 17.8072L37.1478 19.7744L20 26.6332ZM31.4997 29.6004L38.75 32.5004L20 40L1.25 32.5004L8.50042 29.6004L19.552 34.0208C19.8395 34.1358 20.1605 34.1358 20.448 34.0208L31.4997 29.6004ZM3.68304 26.3919L1.25 25.4188V20.4153L3.76622 21.4217C3.73884 21.4889 3.72352 21.5621 3.72283 21.639L3.68304 26.3919ZM4.91894 21.8827L6.97946 22.7069C6.95208 22.7741 6.93676 22.8474 6.93616 22.9242L6.89637 27.6772L4.83576 26.853C4.86315 26.7858 4.87846 26.7125 4.87915 26.6357L4.91894 21.8827ZM8.13219 23.168L10.1887 23.9905C10.1613 24.0577 10.146 24.131 10.1454 24.2079L10.1056 28.9608L8.04909 28.1382C8.07647 28.0711 8.09179 27.9977 8.09239 27.921L8.13219 23.168ZM11.3414 24.4516L13.3973 25.2739C13.3699 25.3411 13.3546 25.4144 13.3539 25.4912L13.3141 30.2442L11.2583 29.4219C11.2857 29.3546 11.301 29.2813 11.3016 29.2045L11.3414 24.4516ZM14.55 25.735L16.6052 26.557C16.5779 26.6242 16.5626 26.6975 16.5619 26.7744L16.5222 31.5273L14.4669 30.7052C14.4942 30.638 14.5096 30.5647 14.5102 30.4879L14.55 25.735ZM17.7581 27.0181L19.4753 27.7049C19.4549 27.764 19.4436 27.8273 19.443 27.8931L19.4029 32.6795L17.6749 31.9884C17.7023 31.9211 17.7176 31.8478 17.7183 31.771L17.7581 27.0181ZM20.5978 27.6757L22.6081 26.8717L22.5682 31.6466C22.5675 31.7269 22.583 31.8036 22.6116 31.8738L20.6011 32.6779L20.6411 27.903C20.6417 27.8226 20.6263 27.7459 20.5978 27.6757ZM23.7649 26.4089L25.8186 25.5875L25.7787 30.3625C25.778 30.4428 25.7934 30.5196 25.822 30.5897L23.7683 31.4111L23.8083 26.6361C23.8089 26.5558 23.7935 26.4791 23.7649 26.4089ZM26.9754 25.1249L29.0286 24.3035L28.9892 29.023C28.9883 29.1215 29.0118 29.2147 29.054 29.297L26.9787 30.127L27.0188 25.3521C27.0194 25.2717 27.004 25.195 26.9754 25.1249ZM30.1854 23.8409L32.2379 23.0199L32.1979 27.7949C32.1972 27.8752 32.2127 27.9519 32.2413 28.0221L30.1888 28.843L30.2288 24.0681C30.2294 23.9878 30.214 23.911 30.1854 23.8409ZM33.3947 22.5572L35.4474 21.7362L35.4074 26.5112C35.4067 26.5915 35.4222 26.6682 35.4508 26.7384L33.398 27.5594L33.438 22.7845C33.4387 22.7041 33.4232 22.6274 33.3947 22.5572ZM36.6042 21.2735L38.75 20.4153V25.4188L36.6075 26.2757L36.6475 21.5007C36.6481 21.4204 36.6327 21.3437 36.6042 21.2735ZM28.5948 4.99435L24.8769 6.94477C24.5846 7.09811 24.2219 6.98714 24.0673 6.69718C23.9128 6.40713 24.0246 6.04721 24.3168 5.89395L28.9138 3.4824C28.9994 3.4374 29.0951 3.41346 29.1938 3.41346C29.2925 3.41346 29.3882 3.4374 29.4738 3.4824L34.0706 5.89395C34.3629 6.04721 34.4747 6.40713 34.3202 6.69718C34.1657 6.98714 33.803 7.09811 33.5106 6.94477L29.7928 4.99435V11.8642C29.7928 12.1923 29.5244 12.4586 29.1938 12.4586C28.8631 12.4586 28.5948 12.1923 28.5948 11.8642V4.99435ZM19.401 1.58098L15.6832 3.53131C15.3908 3.68465 15.0281 3.57376 14.8735 3.28372C14.719 2.99376 14.8308 2.63384 15.1231 2.48049L19.72 0.0689449C19.8056 0.0239438 19.9013 0 20 0C20.0987 0 20.1944 0.0239438 20.28 0.0689449L24.8769 2.48049C25.1692 2.63384 25.281 2.99376 25.1265 3.28372C24.9719 3.57376 24.6092 3.68465 24.3168 3.53131L20.599 1.58098V12.2413C20.599 12.5694 20.3306 12.8357 20 12.8357C19.6694 12.8357 19.401 12.5694 19.401 12.2413V1.58098ZM10.2072 4.99435L6.48936 6.94477C6.19703 7.09811 5.83427 6.98714 5.67981 6.69718C5.52525 6.40713 5.6371 6.04721 5.92935 5.89395L10.5262 3.4824C10.6118 3.4374 10.7075 3.41346 10.8062 3.41346C10.9049 3.41346 11.0006 3.4374 11.0862 3.4824L15.6832 5.89395C15.9754 6.04721 16.0872 6.40713 15.9327 6.69718C15.7781 6.98714 15.4154 7.09811 15.1231 6.94477L11.4052 4.99435V11.8642C11.4052 12.1923 11.1369 12.4586 10.8062 12.4586C10.4756 12.4586 10.2072 12.1923 10.2072 11.8642V4.99435ZM30.9909 10.814L38.75 13.9175L20 21.417L1.25 13.9175L9.00909 10.814V11.8642C9.00909 12.8484 9.81437 13.6473 10.8062 13.6473C11.798 13.6473 12.6033 12.8484 12.6033 11.8642V9.37635L18.2029 7.13666V12.2413C18.2029 13.2254 19.0082 14.0244 20 14.0244C20.9918 14.0244 21.7971 13.2254 21.7971 12.2413V7.13666L27.3967 9.37635V11.8642C27.3967 12.8484 28.202 13.6473 29.1938 13.6473C30.1856 13.6473 30.9909 12.8484 30.9909 11.8642V10.814Z" fill="#E3544C"/>
</svg>
