<svg width="40" height="40" viewBox="0 0 40 40" fill="none" xmlns="http://www.w3.org/2000/svg">
<g clip-path="url(#clip0_16144_1252)">
<path d="M38.5087 3.9288L35.665 4.33513L36.0714 1.49146C36.248 0.255444 34.7425 -0.500025 33.8582 0.385132L28.6412 5.60216C28.4417 5.80169 28.3122 6.06068 28.2723 6.34005L27.6817 10.4744L21.2405 16.9156C20.7304 16.6715 20.1663 16.5236 19.5641 16.5236C17.4065 16.5236 15.6514 18.2787 15.6514 20.4363C15.6514 22.5939 17.4065 24.349 19.5641 24.349C21.7217 24.349 23.4768 22.5939 23.4768 20.4363C23.4768 19.8341 23.3289 19.27 23.0848 18.7599L29.526 12.3187L33.6604 11.7281C33.9397 11.6882 34.1986 11.5587 34.3982 11.3592L39.6153 6.14216C40.4968 5.26037 39.7504 3.75482 38.5087 3.9288Z" fill="#E3544C"/>
<path d="M30.1456 15.3883L26.0136 19.52C26.0561 19.8202 26.0857 20.1245 26.0857 20.4362C26.0857 24.0322 23.1605 26.9575 19.5645 26.9575C15.9684 26.9575 13.0432 24.0322 13.0432 20.4362C13.0432 16.8402 15.9684 13.915 19.5645 13.915C19.8761 13.915 20.1803 13.9445 20.4804 13.987L24.6123 9.85503C23.0807 9.12128 21.3731 8.698 19.5645 8.698C13.092 8.698 7.82617 13.9639 7.82617 20.4363C7.82617 26.9087 13.092 32.1746 19.5645 32.1746C26.0369 32.1746 31.3027 26.9087 31.3027 20.4363C31.3027 18.6275 30.8795 16.92 30.1456 15.3883Z" fill="#E3544C"/>
<path d="M37.2844 12.1612L36.2423 13.2033C35.6479 13.7982 34.8616 14.1913 34.0291 14.3101L32.615 14.5122C33.4393 16.3207 33.9106 18.3225 33.9106 20.4361C33.9106 28.347 27.4747 34.7829 19.5638 34.7829C11.653 34.7829 5.21703 28.347 5.21703 20.4361C5.21703 12.5253 11.653 6.08935 19.5638 6.08935C21.6775 6.08935 23.6793 6.56067 25.4877 7.38497L25.6898 5.97091C25.8086 5.13833 26.2018 4.35208 26.7966 3.75724L27.8384 2.71552C25.2684 1.51185 22.4665 0.872314 19.5637 0.872314C8.77609 0.872314 0 9.64849 0 20.4361C0 31.2238 8.77617 40 19.5638 40C30.3515 40 39.1277 31.2238 39.1277 20.4361C39.1277 17.5333 38.4881 14.7313 37.2844 12.1612Z" fill="#E3544C"/>
</g>
<defs>
<clipPath id="clip0_16144_1252">
<rect width="40" height="40" fill="white"/>
</clipPath>
</defs>
</svg>
