<svg width="40" height="40" viewBox="0 0 40 40" fill="none" xmlns="http://www.w3.org/2000/svg">
<g clip-path="url(#clip0_16040_1898)">
<path d="M37.1735 9.42844C39.086 7.45074 41.3286 3.38949 39.0176 0.995086C38.2423 0.220008 37.1752 -0.126694 36.0947 0.0416567C33.993 0.36919 32.0872 1.33595 30.5832 2.83944L25.932 7.48908L23.1475 6.88318C24.3489 5.04383 21.8645 2.98779 20.2813 4.54628L18.8749 5.95225L15.5751 5.23385C17.631 3.51617 15.1816 0.633383 13.1758 2.37689L11.2583 4.29375L4.42868 2.80694C3.89178 2.68942 3.33738 2.85277 2.94638 3.24198L1.57162 4.61629C0.815467 5.33052 1.00638 6.68899 1.93178 7.16571L17.9711 16.0233L9.85183 24.9042L1.60581 25.3425L0.328592 26.6185C-0.25249 27.1677 -0.0282266 28.2262 0.728764 28.487L8.5346 31.4673L11.5167 39.2715C11.7802 40.0257 12.8339 40.2549 13.3867 39.6698L14.6622 38.3947L15.1007 30.1505L23.9845 22.0339L32.8392 38.0622C33.316 38.9873 34.6741 39.1789 35.3894 38.423C36.1589 37.5363 37.4937 36.8187 37.2002 35.5677L35.7154 28.7471L37.6354 26.8285C37.9864 26.4777 38.1798 26.0109 38.1798 25.5142C38.1723 23.6957 35.8663 23.0081 34.7758 24.4308L34.058 21.1321L35.4653 19.7253C37.0226 18.136 34.9893 15.6932 33.1285 16.8642L32.5215 14.0764L37.1735 9.42844Z" fill="#E3544C"/>
</g>
<defs>
<clipPath id="clip0_16040_1898">
<rect width="40" height="40" fill="white"/>
</clipPath>
</defs>
</svg>
