<svg width="112" height="32" viewBox="0 0 112 32" fill="none" xmlns="http://www.w3.org/2000/svg">
<g clip-path="url(#clip0_16026_1470)">
<path d="M71.5818 6.643C66.7918 6.666 62.8898 10.603 62.9118 15.505C62.9338 20.407 66.8748 24.307 71.6648 24.285C76.4548 24.263 80.3578 20.325 80.3348 15.425C80.3118 10.525 76.3718 6.622 71.5798 6.645L71.5818 6.643ZM71.6478 20.69C70.2898 20.698 68.9848 20.165 68.0198 19.21C67.0548 18.255 66.5198 16.954 66.5048 15.596C66.4898 14.238 67.0298 12.933 67.9848 11.968C68.9398 11.003 70.2408 10.468 71.5988 10.453C72.9568 10.438 74.2618 10.978 75.2268 11.933C76.1918 12.888 76.7268 14.189 76.7418 15.547C76.7558 18.272 74.3718 20.676 71.6478 20.69ZM90.9878 10.798C88.4828 10.81 86.5318 12.888 86.5438 15.393L86.5838 23.778L82.7718 23.796L82.6948 7.133L86.5068 7.115L86.5198 9.728C86.5198 9.728 88.1398 7.108 91.4078 7.093L92.4978 7.087L92.5158 10.789L90.9878 10.798ZM52.9618 7.275L55.8478 18.697L58.8438 7.247L62.6558 7.23L57.9398 23.925L54.2378 23.942L51.2438 12.304L48.3578 23.969L44.6548 23.986L39.6768 7.346L43.3788 7.329L46.6988 18.749L49.3688 7.301L52.9618 7.275ZM103.637 14.661C106.242 13.125 108.082 10.284 108.067 7.017L104.255 7.035C104.269 9.867 101.991 12.165 99.2688 12.175L98.7238 12.177L98.6638 -1L94.8518 -0.982L94.9688 23.738L98.7788 23.721L98.7428 15.881L99.1778 15.879C99.6138 15.877 100.051 16.093 100.162 16.419L105.532 23.689L109.997 23.669L103.637 14.661Z" fill="white"/>
<path d="M30.8529 6.835C26.7159 6.855 23.5699 9.592 22.3929 13.953C20.4179 10.913 18.8769 7.436 17.9929 4.5L13.6379 4.52L13.6919 16.063C13.6967 17.1605 13.2655 18.215 12.4932 18.9946C11.7208 19.7743 10.6704 20.2154 9.57293 20.221C8.47545 20.2258 7.42097 19.7946 6.64128 19.0222C5.86159 18.2498 5.42049 17.1995 5.41493 16.102L5.35993 4.559L1.00293 4.579L1.05693 16.122C1.07993 20.912 4.90693 24.708 9.59093 24.685C14.2749 24.662 18.0689 20.833 18.0469 16.042L18.0369 14.082C18.9149 15.819 20.0129 17.665 21.2199 19.294L18.5569 32.047L23.0209 32.027L24.9409 22.761C26.6879 23.843 28.6409 24.486 30.9369 24.475C35.7289 24.452 39.6319 20.515 39.6069 15.505C39.5887 13.1967 38.6581 10.9894 37.0182 9.36486C35.3783 7.74032 33.1623 6.83049 30.8539 6.834L30.8529 6.835ZM30.9149 20.012C29.1729 20.02 27.4279 19.266 26.0069 18.074L26.4339 16.331V16.231C26.7539 14.377 27.7159 11.215 30.9839 11.201C32.1362 11.1991 33.2426 11.6524 34.0624 12.4622C34.8821 13.272 35.3488 14.3728 35.3609 15.525C35.2629 18.03 33.2039 20 30.9159 20.011L30.9149 20.012Z" fill="#6FDA44"/>
</g>
<defs>
<clipPath id="clip0_16026_1470">
<rect width="112" height="32" fill="white"/>
</clipPath>
</defs>
</svg>
