<svg width="75" height="24" viewBox="0 0 75 24" fill="none" xmlns="http://www.w3.org/2000/svg">
<g clip-path="url(#clip0_16040_615)">
<path d="M11.6903 4.6543C12.2986 6.67687 13.359 9.07211 14.7178 11.1664C15.5024 8.25607 17.5588 6.396 20.2743 6.26996L20.5395 6.26255C22.1276 6.26014 23.6526 6.88655 24.7809 8.00545C25.9093 9.12466 26.5498 10.6458 26.5623 12.2361C26.5796 15.6875 23.8946 18.3998 20.5975 18.4159C19.0177 18.4235 17.6729 17.9804 16.4709 17.235L15.1508 23.6186L12.079 23.6322L13.911 14.8461C13.0805 13.7239 12.3253 12.4519 11.7212 11.2553L11.7274 12.6066C11.7422 15.9071 9.13209 18.5445 5.90932 18.5604C2.68634 18.5762 0.0528363 15.961 0.0370104 12.661L0 4.70865L2.99784 4.69506L3.03608 12.6474C3.03991 13.4035 3.34343 14.1275 3.87992 14.6596C4.41639 15.1915 5.14196 15.488 5.89699 15.4847C6.6521 15.4808 7.37522 15.177 7.90665 14.6398C8.43784 14.1027 8.73404 13.3761 8.73075 12.6202L8.69374 4.66788L11.6903 4.6543ZM20.6296 9.27031C18.3809 9.27996 17.7187 11.459 17.4985 12.7363V12.8055L17.2049 14.0061C18.1826 14.8273 19.3841 15.3457 20.5827 15.3402C22.157 15.3326 23.5736 13.9754 23.641 12.2497C23.6326 11.456 23.3117 10.6978 22.7478 10.1399C22.1838 9.58203 21.4224 9.26904 20.6296 9.27031Z" fill="#15A800"/>
<path d="M48.5663 6.13416C51.8636 6.11841 54.5746 8.80729 54.5904 12.183C54.6062 15.5589 51.9203 18.2723 48.6243 18.2875C45.3287 18.3025 42.6169 15.6155 42.6015 12.2386C42.5864 8.86143 45.2717 6.14878 48.5676 6.13293L48.5663 6.13416ZM39.1805 18.0392L36.633 18.0503L34.5727 10.0325L32.5877 18.0689L30.039 18.0812L26.6143 6.61714L29.1618 6.60478L31.4466 14.4731L33.2835 6.58626L35.7558 6.56773L37.7408 14.4373L39.8023 6.5492L42.4263 6.53685L39.1805 18.0392ZM62.972 8.98876L61.9209 8.99493C60.1973 9.0032 58.8545 10.4351 58.8626 12.1608L58.8898 17.9379L56.267 17.9503L56.2139 6.47014L58.8367 6.45779L58.8466 8.25874C58.8466 8.25874 59.961 6.4533 62.2096 6.44297L62.9597 6.43926L62.972 8.98876ZM67.243 9.94482L67.6181 9.94358C69.4908 9.9367 71.0582 8.35425 71.0489 6.40344L73.6717 6.38986C73.682 8.64051 72.4168 10.5986 70.6245 11.6568L75.0004 17.8626L71.9285 17.8762L68.2324 12.8673C68.1557 12.6432 67.8559 12.4943 67.5564 12.4955L67.2566 12.4968L67.2813 17.8984L64.6597 17.9108L64.5795 0.87954L67.2023 0.867188L67.243 9.94482ZM48.5787 8.75777C47.6445 8.76825 46.7498 9.13689 46.0928 9.80153C45.4358 10.4662 45.0636 11.365 45.0738 12.3004C45.0841 13.2359 45.4524 14.1327 46.1163 14.7906C46.7803 15.4485 47.6788 15.8164 48.6132 15.8109C50.4875 15.8011 52.1277 14.1443 52.1181 12.267C52.1078 11.3315 51.7396 10.4347 51.0757 9.77683C50.4117 9.11902 49.513 8.74744 48.5787 8.75777Z" fill="white"/>
</g>
<defs>
<clipPath id="clip0_16040_615">
<rect width="75" height="24" fill="white"/>
</clipPath>
</defs>
</svg>
