<svg width="24" height="24" viewBox="0 0 24 24" fill="none" xmlns="http://www.w3.org/2000/svg">
<g clip-path="url(#clip0_16133_1963)">
<path d="M12 23.5148C18.4721 23.5148 23.7188 18.3594 23.7188 11.9998C23.7188 5.64028 18.4721 0.484863 12 0.484863C5.52792 0.484863 0.28125 5.64028 0.28125 11.9998C0.28125 18.3594 5.52792 23.5148 12 23.5148Z" fill="white"/>
<path d="M16.1957 8.51758C14.2191 8.51758 13.1126 9.80575 12.7958 11.1319C12.4368 10.4562 12.1707 9.55234 11.9638 8.71188H9.23125V12.1118C9.23125 13.345 8.6695 14.2573 7.57141 14.2573C6.47327 14.2573 5.84397 13.345 5.84397 12.1118L5.85662 8.71188H4.28125V12.1118C4.28125 13.1043 4.60225 14.0039 5.18931 14.6459C5.79325 15.309 6.61684 15.6553 7.57136 15.6553C9.47191 15.6553 10.7981 14.1982 10.7981 12.1118V9.82689C10.9966 10.5787 11.4696 12.0231 12.3735 13.2902L11.5288 18.1007H13.1295L13.687 14.6924C13.8686 14.8444 14.0629 14.9796 14.2698 15.1021C14.8062 15.4399 15.4186 15.63 16.0521 15.6511C16.0521 15.6511 16.1493 15.6553 16.2 15.6553C18.1597 15.6553 19.7181 14.1391 19.7181 12.0907C19.7181 10.0423 18.1555 8.51763 16.1957 8.51763M16.1957 14.2532C14.9836 14.2532 14.1811 13.3155 13.9573 12.9523C14.2445 10.6547 15.085 9.92828 16.1957 9.92828C17.2938 9.92828 18.147 10.8068 18.147 12.0907C18.147 13.3746 17.2938 14.2532 16.1957 14.2532Z" fill="#28384F"/>
</g>
<defs>
<clipPath id="clip0_16133_1963">
<rect width="24" height="24" fill="white"/>
</clipPath>
</defs>
</svg>
